<svg width="25" height="25" viewBox="0 0 25 25" fill="none" xmlns="http://www.w3.org/2000/svg">
<g clip-path="url(#clip0_79_133)">
<path d="M12.1689 7.82379L4.16671 14.4145V21.5278C4.16671 21.712 4.23987 21.8886 4.3701 22.0188C4.50034 22.1491 4.67697 22.2222 4.86115 22.2222L9.72487 22.2096C9.90844 22.2087 10.0842 22.1352 10.2137 22.005C10.3432 21.8749 10.4158 21.6988 10.4158 21.5152V17.3611C10.4158 17.1769 10.489 17.0003 10.6192 16.8701C10.7495 16.7398 10.9261 16.6667 11.1103 16.6667H13.8881C14.0722 16.6667 14.2489 16.7398 14.3791 16.8701C14.5093 17.0003 14.5825 17.1769 14.5825 17.3611V21.5122C14.5822 21.6035 14.6 21.6941 14.6347 21.7786C14.6695 21.8631 14.7206 21.9399 14.7851 22.0046C14.8496 22.0693 14.9263 22.1207 15.0107 22.1557C15.0951 22.1907 15.1856 22.2088 15.2769 22.2088L20.1389 22.2222C20.3231 22.2222 20.4997 22.1491 20.63 22.0188C20.7602 21.8886 20.8334 21.712 20.8334 21.5278V14.4097L12.8329 7.82379C12.7389 7.74798 12.6217 7.70663 12.5009 7.70663C12.3801 7.70663 12.2629 7.74798 12.1689 7.82379ZM24.8091 12.3034L21.1806 9.3125V3.30079C21.1806 3.16265 21.1257 3.03018 21.028 2.9325C20.9304 2.83483 20.7979 2.77995 20.6598 2.77995H18.2292C18.0911 2.77995 17.9586 2.83483 17.8609 2.9325C17.7632 3.03018 17.7084 3.16265 17.7084 3.30079V6.45226L13.8225 3.25521C13.4496 2.94835 12.9817 2.78057 12.4987 2.78057C12.0158 2.78057 11.5479 2.94835 11.175 3.25521L0.188408 12.3034C0.135668 12.347 0.0920346 12.4005 0.0599998 12.461C0.0279651 12.5215 0.00815734 12.5876 0.00170829 12.6558C-0.00474076 12.7239 0.00229532 12.7926 0.0224145 12.858C0.0425336 12.9234 0.0753416 12.9842 0.118964 13.0369L1.22573 14.3824C1.26924 14.4353 1.32275 14.4791 1.3832 14.5113C1.44365 14.5435 1.50986 14.5634 1.57803 14.57C1.6462 14.5766 1.715 14.5696 1.78049 14.5496C1.84598 14.5295 1.90687 14.4967 1.95968 14.4531L12.1689 6.04428C12.2629 5.96846 12.3801 5.92712 12.5009 5.92712C12.6217 5.92712 12.7389 5.96846 12.8329 6.04428L23.0426 14.4531C23.0953 14.4968 23.1561 14.5296 23.2215 14.5497C23.2869 14.5698 23.3556 14.5768 23.4237 14.5704C23.4918 14.5639 23.558 14.5441 23.6185 14.5121C23.6789 14.4801 23.7325 14.4364 23.7761 14.3837L24.8829 13.0382C24.9264 12.9852 24.9591 12.9241 24.979 12.8584C24.9989 12.7927 25.0056 12.7237 24.9987 12.6555C24.9919 12.5872 24.9716 12.5209 24.939 12.4605C24.9065 12.4001 24.8623 12.3467 24.8091 12.3034Z" fill="black"/>
</g>
<defs>
<clipPath id="clip0_79_133">
<rect width="25" height="25" fill="white"/>
</clipPath>
</defs>
</svg>
