<svg width="25" height="20" viewBox="0 0 25 20" fill="none" xmlns="http://www.w3.org/2000/svg">
<path d="M23.125 0H1.875C1.37772 0 0.900805 0.197544 0.549175 0.549175C0.197544 0.900805 0 1.37772 0 1.875L0 14.375C0 14.8723 0.197544 15.3492 0.549175 15.7008C0.900805 16.0525 1.37772 16.25 1.875 16.25H11.25V17.5H4.375C4.20924 17.5 4.05027 17.5658 3.93306 17.6831C3.81585 17.8003 3.75 17.9592 3.75 18.125V19.375C3.75 19.5408 3.81585 19.6997 3.93306 19.8169C4.05027 19.9342 4.20924 20 4.375 20H20.625C20.7908 20 20.9497 19.9342 21.0669 19.8169C21.1842 19.6997 21.25 19.5408 21.25 19.375V18.125C21.25 17.9592 21.1842 17.8003 21.0669 17.6831C20.9497 17.5658 20.7908 17.5 20.625 17.5H13.75V16.25H23.125C23.6223 16.25 24.0992 16.0525 24.4508 15.7008C24.8025 15.3492 25 14.8723 25 14.375V1.875C25 1.37772 24.8025 0.900805 24.4508 0.549175C24.0992 0.197544 23.6223 0 23.125 0ZM22.5 13.75H2.5V2.5H22.5V13.75Z" fill="black"/>
</svg>
