<svg width="34" height="16" viewBox="0 0 34 16" fill="none" xmlns="http://www.w3.org/2000/svg">
<path d="M1.21429 2.93878H32.7857C33.4564 2.93878 34 2.64641 34 2.28571V0.653061C34 0.292367 33.4564 0 32.7857 0H1.21429C0.543621 0 0 0.292367 0 0.653061V2.28571C0 2.64641 0.543621 2.93878 1.21429 2.93878ZM1.21429 9.46939H32.7857C33.4564 9.46939 34 9.17702 34 8.81633V7.18367C34 6.82298 33.4564 6.53061 32.7857 6.53061H1.21429C0.543621 6.53061 0 6.82298 0 7.18367V8.81633C0 9.17702 0.543621 9.46939 1.21429 9.46939ZM1.21429 16H32.7857C33.4564 16 34 15.7076 34 15.3469V13.7143C34 13.3536 33.4564 13.0612 32.7857 13.0612H1.21429C0.543621 13.0612 0 13.3536 0 13.7143V15.3469C0 15.7076 0.543621 16 1.21429 16Z" fill="black"/>
</svg>
